<?xml version="1.0" encoding="utf-8"?>
<!-- Svg Vector Icons : http://www.onlinewebfonts.com/icon -->
<!DOCTYPE svg PUBLIC "-//W3C//DTD SVG 1.1//EN" "http://www.w3.org/Graphics/SVG/1.1/DTD/svg11.dtd">
<svg version="1.1" xmlns="http://www.w3.org/2000/svg" xmlns:xlink="http://www.w3.org/1999/xlink" x="0px" y="0px" viewBox="0 0 1000 1000" enable-background="new 0 0 1000 1000" xml:space="preserve">
<metadata> Svg Vector Icons : http://www.onlinewebfonts.com/icon </metadata>
<g><g transform="translate(0.000000,511.000000) scale(0.100000,-0.100000)"><path d="M8516.3,5006.8c-25.6-9.6-175.8-143.8-335.5-297.2c-226.9-220.5-313.2-284.4-409.1-300.4c-150.2-28.8-230.1-137.4-204.5-287.6c12.8-86.3,3.2-124.6-54.3-175.8c-67.1-63.9-79.9-63.9-204.6-22.4c-73.5,25.6-249.2,63.9-389.8,83.1c-645.6,89.5-1294.3-118.3-1824.8-584.8c-357.9-313.2-540.1-543.3-540.1-683.9c0-44.7-38.4-70.3-147-99.1c-121.4-32-204.5-95.9-460.2-351.5c-226.9-226.9-322.8-345.1-354.7-450.6c-38.3-115.1-67.1-143.8-163-179c-236.5-79.9-715.8-549.7-808.5-792.5c-47.9-124.6-73.5-150.2-201.3-198.1c-124.6-47.9-326-230.1-1150.5-1051.4C715.5-930.9,236.2-1419.8,201-1467.8c-226.9-313.2-70.3-830.9,457-1533.9c795.7-1061,2013.3-1904.7,2563-1780c166.2,35.1,258.9,118.2,1307.1,1172.8c798.9,805.3,965.1,987.5,1029,1134.5c67.1,150.2,92.7,178.9,182.2,198.1c73.5,12.8,198.1,115,434.6,348.3c268.5,262.1,342,351.5,370.7,463.4c19.2,73.5,54.4,134.2,76.7,134.2c223.7,0,872.5,623.2,923.6,888.4c16,76.7,38.3,99.1,124.6,115.1c217.3,41.5,735,562.4,958.7,961.9c297.2,533.7,373.9,1255.9,188.6,1780c-44.7,124.6-41.6,137.4,22.3,204.5c51.1,54.3,92.7,70.3,147,57.5c121.5-32,230.1,12.8,281.3,118.3c28.8,54.3,44.8,115,38.3,134.2c-9.5,22.4,121.5,179,290.8,348.3c255.7,258.8,303.6,326,303.6,409c0,89.5-73.5,175.8-603.9,703.1c-332.4,329.2-632.8,607.2-667.9,616.8C8593,5016.4,8541.8,5016.4,8516.3,5006.8z M9139.5,3527.1l-175.8-175.8l-357.9,357.9l-361.1,361.1l175.8,175.8l175.8,175.8l357.9-357.9l361.2-361.1L9139.5,3527.1z M8404.5,2852.9c-95.9-102.3-175.8-195-175.8-207.7c0-12.8,38.3-134.2,86.3-265.2c79.9-214.1,89.5-287.6,89.5-626.4c0-450.6-60.7-661.5-287.6-1006.7c-178.9-268.4-527.3-607.2-629.6-607.2c-51.1,0-226.9,153.4-623.2,549.7c-482.5,482.5-559.2,546.5-651.9,546.5c-73.5,0-124.6-25.6-179-86.3c-143.8-169.4-121.4-207.7,489-821.3c485.7-488.9,562.4-578.4,546.5-642.4c-25.5-99.1-476.2-536.9-552.9-536.9c-32,0-306.8,246.1-620,559.3c-610.4,607.2-648.8,629.6-818.1,485.8c-63.9-57.5-86.3-102.3-83.1-182.2c3.2-95.9,67.1-172.5,546.5-651.9c412.2-412.3,546.5-565.6,546.5-626.4c0-54.3-70.3-147-230.1-310c-335.5-338.7-303.6-348.3-968.3,310c-453.8,453.8-562.5,543.3-639.1,543.3c-124.6,0-239.7-111.9-239.7-236.5c0-83.1,76.7-175.8,546.5-645.5c441-444.2,549.6-565.6,549.6-636c0-73.5-175.7-262.1-987.5-1073.7c-795.7-795.8-1003.5-987.5-1070.6-987.5c-127.8,0-572,236.5-869.2,457c-335.6,252.5-878.8,795.8-1131.3,1131.3c-223.7,297.2-457,741.4-457,869.2c0,67.1,188.5,274.8,1000.3,1083.3c549.7,546.5,1019.4,997.1,1045,997.1c25.6,0,92.7-28.7,143.8-63.9c124.6-83.1,233.3-79.9,326,6.4c89.5,83.1,95.9,214.1,12.8,348.3c-35.2,54.3-54.3,124.6-44.7,153.4c9.6,28.8,121.4,156.6,246.1,284.4c233.3,239.7,348.3,287.6,434.6,182.2c22.4-28.7,92.7-47.9,159.8-47.9c220.5,0,326,223.7,188.5,396.3c-95.9,124.6-63.9,198.1,207.7,460.2c242.9,236.5,310,265.3,402.7,182.2c28.8-25.6,95.9-54.3,150.2-67.1c204.5-41.5,361.1,242.9,220.5,399.5c-102.3,111.8-63.9,204.5,182.1,437.8c287.6,281.2,473,405.8,747.8,514.5c194.9,76.7,262.1,86.3,616.8,89.5c354.7,0,425-9.6,636-86.3c274.8-102.2,310-92.7,514.5,115.1l140.6,147l329.1-326l326-325.9L8404.5,2852.9z"/></g></g>
</svg>