<?xml version="1.0" encoding="UTF-8" standalone="no"?>
<!-- Created with Inkscape (http://www.inkscape.org/) -->

<svg
   xmlns:dc="http://purl.org/dc/elements/1.1/"
   xmlns:cc="http://creativecommons.org/ns#"
   xmlns:rdf="http://www.w3.org/1999/02/22-rdf-syntax-ns#"
   xmlns:svg="http://www.w3.org/2000/svg"
   xmlns="http://www.w3.org/2000/svg"
   xmlns:xlink="http://www.w3.org/1999/xlink"
   xmlns:sodipodi="http://sodipodi.sourceforge.net/DTD/sodipodi-0.dtd"
   xmlns:inkscape="http://www.inkscape.org/namespaces/inkscape"
   width="242.83612"
   height="709.33411"
   id="svg4037"
   version="1.1"
   inkscape:version="0.48.5 r10040"
   sodipodi:docname="bottle-pet.svg">
  <defs
     id="defs4039">
    <linearGradient
       id="linearGradient3784">
      <stop
         id="stop3786"
         offset="0"
         style="stop-color:#9ce2ff;stop-opacity:1;" />
      <stop
         style="stop-color:#37b5e9;stop-opacity:1;"
         offset="0.5"
         id="stop3788" />
      <stop
         id="stop3790"
         offset="1"
         style="stop-color:#4aabd3;stop-opacity:1" />
    </linearGradient>
    <linearGradient
       id="linearGradient3774">
      <stop
         style="stop-color:#9ce2ff;stop-opacity:1;"
         offset="0"
         id="stop3776" />
      <stop
         id="stop3782"
         offset="0.5"
         style="stop-color:#37b5e9;stop-opacity:1;" />
      <stop
         style="stop-color:#4aabd3;stop-opacity:1"
         offset="1"
         id="stop3778" />
    </linearGradient>
    <radialGradient
       inkscape:collect="always"
       xlink:href="#linearGradient3784"
       id="radialGradient3780"
       cx="-142.85938"
       cy="564.04205"
       fx="-142.85938"
       fy="564.04205"
       r="121.41806"
       gradientTransform="matrix(0.97092309,-0.03892332,0.06920725,1.7263356,-43.189716,-415.24441)"
       gradientUnits="userSpaceOnUse" />
  </defs>
  <sodipodi:namedview
     id="base"
     pagecolor="#ffffff"
     bordercolor="#666666"
     borderopacity="1.0"
     inkscape:pageopacity="0.0"
     inkscape:pageshadow="2"
     inkscape:zoom="1.979899"
     inkscape:cx="-22.008355"
     inkscape:cy="230.47529"
     inkscape:document-units="px"
     inkscape:current-layer="layer1"
     showgrid="false"
     showguides="true"
     inkscape:guide-bbox="true"
     inkscape:window-width="1920"
     inkscape:window-height="1055"
     inkscape:window-x="0"
     inkscape:window-y="0"
     inkscape:window-maximized="1"
     fit-margin-top="0"
     fit-margin-left="0"
     fit-margin-right="0"
     fit-margin-bottom="0">
    <sodipodi:guide
       orientation="0,1"
       position="632.84887,521.34691"
       id="guide4219" />
    <sodipodi:guide
       orientation="1,0"
       position="548.56315,427.77548"
       id="guide4751" />
    <sodipodi:guide
       orientation="0,1"
       position="581.4203,497.0612"
       id="guide4857" />
    <sodipodi:guide
       orientation="0,1"
       position="548.56315,389.73977"
       id="guide4859" />
    <sodipodi:guide
       orientation="6.123234e-17,-1"
       position="576.91965,617.39533"
       id="guide4909" />
    <sodipodi:guide
       orientation="0,1"
       position="519.5935,-0.56548647"
       id="guide4914" />
    <sodipodi:guide
       orientation="1,0"
       position="122.13458,157.0612"
       id="guide4953" />
    <sodipodi:guide
       orientation="0,1"
       position="108.38458,709.20405"
       id="guide5003" />
    <sodipodi:guide
       orientation="0,1"
       position="27.396666,709.20405"
       id="guide5005" />
    <sodipodi:guide
       orientation="1,0"
       position="87.670296,674.38263"
       id="guide5007" />
    <sodipodi:guide
       orientation="1,0"
       position="160.48427,754.271"
       id="guide5009" />
    <sodipodi:guide
       orientation="1,0"
       position="81.439826,759.06922"
       id="guide5011" />
    <sodipodi:guide
       orientation="0,1"
       position="173.86879,731.66884"
       id="guide5013" />
    <sodipodi:guide
       orientation="0,1"
       position="140.34887,37.418344"
       id="guide5034" />
    <sodipodi:guide
       orientation="0,1"
       position="122.13458,18.489774"
       id="guide5036" />
    <sodipodi:guide
       orientation="0,1"
       position="16.790066,709.20405"
       id="guide5065" />
  </sodipodi:namedview>
  <metadata
     id="metadata4042">
    <rdf:RDF>
      <cc:Work
         rdf:about="">
        <dc:format>image/svg+xml</dc:format>
        <dc:type
           rdf:resource="http://purl.org/dc/dcmitype/StillImage" />
        <dc:title></dc:title>
      </cc:Work>
    </rdf:RDF>
  </metadata>
  <g
     inkscape:label="Calque 1"
     inkscape:groupmode="layer"
     id="layer1"
     transform="translate(264.27744,-209.375)">
    <path
       style="fill:url(#radialGradient3780);fill-opacity:1;stroke:#34c6ff;stroke-opacity:1;stroke-width:2;stroke-miterlimit:4;stroke-dasharray:none"
       d="m -182.43724,209.375 0,0.125 -2.88713,0 c 0.18201,14.37834 0.15691,30.49423 0.15691,40.59375 -13.29687,0.10181 -11.86722,10.95592 -11.36026,21.28125 0.18954,3.86016 -2.97153,10.26522 0.34521,10.71875 16.75301,2.29078 1.83567,21.21004 1.3808,33.125 2.12733,19.48842 -67.21057,91.20911 -66.84348,132.3125 0.27794,31.12076 20.96281,54.72363 0.25106,79.71875 -11.12909,25.91165 21.82208,49.41752 0.12553,71.65625 -5.55341,76.97268 -1.98246,153.98565 -0.59626,230.96875 1.6405,24.30604 4.89968,50.38499 18.29566,71.28125 11.12533,20.62307 48.95478,26.37682 55.20078,-0.9375 16.22008,12.50436 18.35739,15.82362 45.8176,18.34375 l 0,0.0312 c 0.0639,-0.006 0.12453,-0.0258 0.18829,-0.0312 0.0742,0.007 0.14539,0.0249 0.21967,0.0312 l 0,-0.0312 c 28.84948,-0.67869 40.63347,-14.74888 45.817593,-18.34375 6.246005,27.31432 44.07545,21.56057 55.200786,0.9375 13.395979,-20.89626 16.655159,-46.97521 18.295655,-71.28125 1.386197,-76.9831 4.957147,-153.99607 -0.596256,-230.96875 -21.696551,-22.23873 11.254618,-45.7446 0.125527,-71.65625 -20.711751,-24.99512 0.04975,-48.59741 0.251056,-79.71875 0.265546,-41.05312 -66.976414,-108.79695 -64.835033,-132.3125 -0.454872,-11.91496 -16.459558,-32.46037 0.407965,-33.65625 2.903946,-0.20588 1.090132,-6.40822 0.721784,-9.65625 -1.074256,-9.47254 1.81295,-21.74865 -11.705454,-21.9375 0.02017,-10.44874 -1.47495,-40.5 -1.47495,-40.5 l -5.868413,-0.0937 c -0.008,0.0411 -0.0239,0.0837 -0.0313,0.125 l -76.60325,-0.125 z m 3.10681,2.65625 73.11986,0 c -0.33994,2.48526 -0.78462,4.86366 -2.85575,5.625 0,0 -45.27866,-0.35316 -67.1573,-0.125 -2.70654,-0.92047 -3.20623,-0.2158 -3.10681,-5.5 z m 70.01305,9.40625 0.15691,5.5625 -66.46689,0.78125 -0.3452,-4.78125 66.65518,-1.5625 z m 0.43935,8.875 -0.12553,7.59375 -67.22006,1.875 0,-6.71875 67.34559,-2.75 z m -0.12553,11.6875 -0.12553,9.28125 -67.09453,0.0937 0,-7.0625 67.22006,-2.3125 z m -38.53699,14.625 c 4.37825,-0.011 8.77067,0.0216 13.24317,0.0937 1.85936,3.56625 -1.29223,5.94923 -7.84548,14.125 -20.34405,0.44561 -34.10706,0.49284 -45.94312,0.25 -0.25361,-5.51663 -0.33619,-11.37674 0,-13.625 14.41741,-0.44148 27.41066,-0.81066 40.54543,-0.84375 z m 5.17802,24.65625 c 9.05231,0.5982 18.14075,2.51516 24.35236,4.4375 9.15176,16.09031 10.01996,43.81272 26.360808,61.0625 23.295838,24.59163 38.99106,40.97933 48.516438,72.71875 5.458304,18.18756 7.882213,46.92539 -2.039824,60.78125 -32.270096,1.73806 -64.612682,1.86665 -96.970112,1.65625 -0.13573,-8.8e-4 -0.27223,8.9e-4 -0.40796,0 -32.35709,0.21039 -64.70036,0.0818 -96.97012,-1.65625 -9.92203,-13.85586 -8.72153,-43.00318 -2.03982,-60.78125 8.32027,-22.13782 31.11638,-53.65194 48.51644,-72.71875 16.01556,-17.54969 17.20904,-44.97219 26.3608,-61.0625 6.20448,-1.92013 15.27898,-3.83692 24.32099,-4.4375 z M -216.3297,495.375 c 24.57083,-0.0775 49.86705,4.99977 73.77888,5.21875 29.94653,9.5e-4 83.070882,-9.74958 97.378072,-1.5 -4.930485,10.15398 9.38742,22.74929 -10.387414,18.90625 -29.121992,-2.2249 -57.448338,-2.66727 -86.582698,-2.90625 -29.9066,0.69013 -59.90442,2.32359 -86.99066,2.90625 -19.77484,3.84304 -5.45693,-8.75227 -10.38742,-18.90625 0.18579,-2.34086 5.13111,-3.25472 12.70968,-3.34375 3.47427,-0.25081 6.97144,-0.36393 10.48156,-0.375 z m 94.86752,33.59375 c 30.665055,-0.21041 61.570451,1.49306 85.013604,4.40625 -1.180653,8.72149 4.833146,23.20007 -9.728394,20.6875 -31.958766,0.96089 -73.80373,1.39881 -95.96589,1.6875 -22.16216,0.2887 -70.81839,-0.93491 -96.37386,-1.6875 -14.56153,2.51257 -8.54774,-11.96601 -9.72839,-20.6875 37.70458,-4.17163 70.92849,-4.70661 105.69429,-3.9375 6.95756,-0.25966 14.01209,-0.42019 21.08864,-0.46875 z M -237.10453,567.25 c 30.91546,-0.48266 79.40603,5.74793 94.55371,5.6875 -13.91875,0.35039 13.95918,-0.0457 0.40796,0 15.49459,-0.38158 63.00714,-5.18787 94.553704,-5.6875 4.921488,7.82404 0.673622,10.09001 2.416408,22.5625 -5.902592,2.28777 -12.359694,2.1471 -18.515329,1.34375 -44.322723,-2.26011 -45.944343,-0.18251 -78.454783,-1.59375 -32.51044,-1.41125 -59.61862,1.84531 -78.86275,1.59375 -6.15563,0.80335 -12.61274,0.94402 -18.51533,-1.34375 1.74279,-12.47249 -2.50508,-14.73846 2.41641,-22.5625 z m 115.10886,36.4375 c 25.479706,0.0824 62.57005,1.08121 82.628576,2.28125 3.722205,101.67896 11.093155,313.30583 -45.817594,275.3125 -20.156112,-15.69957 -35.151052,25.08042 -56.958172,25.90625 -13.42246,0.01 -24.61201,-45.13183 -46.19418,-25.90625 -69.90905,62.45825 -64.36049,-175.72997 -56.98955,-275.3125 35.81468,-2.97499 81.19821,-1.16308 102.77577,-2.03125 4.849,-0.20251 12.06192,-0.27745 20.55515,-0.25 z"
       id="path4216-6"
       inkscape:connector-curvature="0" />
    <path
       style="fill:#24bfff;fill-opacity:1;fill-rule:evenodd;stroke:none"
       d="m -209.85919,237.42162 0,0.25253"
       id="path5075"
       inkscape:connector-curvature="0" />
  </g>
</svg>
